<?xml version="1.0" standalone="no"?>
<!DOCTYPE svg PUBLIC "-//W3C//DTD SVG 1.1//EN" "http://www.w3.org/Graphics/SVG/1.1/DTD/svg11.dtd" >
<svg xmlns="http://www.w3.org/2000/svg">
<metadata>
This is a custom SVG webfont generated by Font Squirrel.
Copyright   : Copyright c Dylan Smith  Kienan Smith Published by GarageFonts USA   wwwgaragefontscom 2002 All rights reserved
Designer    : Dylan Smith  Kienan Smith
Foundry     : Dylan Smith  Kienan Smith Published by GarageFonts USA   wwwgaragefontscom
Foundry URL : wwwgaragefontscom
</metadata>
<defs>
<font id="webfontXsBqnBPO" horiz-adv-x="1245" >
<font-face units-per-em="2048" ascent="1638" descent="-410" />
<missing-glyph horiz-adv-x="598" />
<glyph unicode=" "  horiz-adv-x="598" />
<glyph unicode="&#x09;" horiz-adv-x="598" />
<glyph unicode="&#xa0;" horiz-adv-x="598" />
<glyph unicode="!" horiz-adv-x="452" d="M268 776l-24 -403h-45l-23 403v664h92v-664zM309 61.5q0 -34.5 -24.5 -59.5t-59.5 -25t-58.5 25t-23.5 59q0 33 25 57.5t57 24.5q35 0 59.5 -23.5t24.5 -58z" />
<glyph unicode="&#x22;" horiz-adv-x="641" d="M539 1432l-45 -584h-48l-43 588v2q0 29 66 28h4q64 1 66 -34zM238 1432l-45 -584h-48l-43 588v2q0 29 66 28h4q64 1 66 -34z" />
<glyph unicode="#" horiz-adv-x="1415" d="M1272 948h-297l-29 -401h303v-76h-307l-31 -471h-88l31 471h-334l-35 -471h-84l31 471h-289v76h293l27 399h-295v80h301l29 414h90l-29 -414h334l27 414h88l-29 -414h293v-78zM887 948h-332l-29 -401h332z" />
<glyph unicode="$" horiz-adv-x="1126" d="M1024 373q0 -168 -111.5 -265.5t-291.5 -111.5v-119h-89v117q-301 16 -430 309l72 51q104 -283 391 -282q172 0 269.5 82t97.5 223q0 102 -93.5 183t-328.5 167q-211 78 -298 162t-87 211q0 166 113.5 256t293.5 98v109h89v-111q256 -18 395 -238l-68 -53 q-137 215 -391 215q-147 0 -242.5 -67.5t-95.5 -200.5q0 -111 70.5 -170t273.5 -139q270 -106 365.5 -198.5t95.5 -227.5z" />
<glyph unicode="%" horiz-adv-x="1888" d="M1786 432q0 -80 -17.5 -156.5t-54.5 -146.5t-103.5 -112t-154.5 -42q-156 0 -239.5 129t-83.5 326q0 117 28.5 216t105 172t193.5 73q162 0 244 -131t82 -328zM1399 1483l-838 -1559l-86 25l838 1556zM756 1001q0 -111 -29 -209t-106.5 -172.5t-194.5 -74.5 q-154 0 -239 129t-85 325q0 117 30 216.5t106.5 172t193.5 72.5q162 0 243 -130t81 -329zM1688 428q0 168 -58.5 273.5t-171.5 105.5q-111 0 -170 -105.5t-59 -267.5q0 -57 9 -113.5t31.5 -118t72 -99t118.5 -37.5q66 0 114 35.5t70.5 94t33 116t10.5 116.5zM659 997 q0 166 -59 272.5t-172 106.5q-111 0 -169 -105.5t-58 -266.5q0 -57 9 -113.5t31.5 -118t70.5 -99.5t118 -38q86 0 141.5 64.5t71.5 139t16 158.5z" />
<glyph unicode="&#x26;" horiz-adv-x="1269" d="M1188 2h-117l-86 94q-145 -121 -362 -121q-254 0 -387.5 116t-133.5 296q0 125 76 220t211 151l-117 133q-80 86 -79 213q0 174 130 265t330 91q145 0 239.5 -49t188.5 -162l-65 -55q-76 100 -157 144t-214 44q-152 0 -257 -71.5t-105 -194.5q0 -109 61 -176l647 -719 q51 66 56 144h83q-6 -100 -83 -207zM932 156l-486 540q-254 -96 -253 -317q0 -166 126.5 -247t301.5 -81q176 1 311 105z" />
<glyph unicode="'" horiz-adv-x="339" d="M238 1432l-45 -584h-48l-43 588v2q0 29 66 28h4q64 1 66 -34z" />
<glyph unicode="(" horiz-adv-x="659" d="M598 1552q-381 -375 -381 -895q0 -504 381 -878l-23 -60q-229 168 -351 428.5t-122 518.5t122 518t351 426z" />
<glyph unicode=")" horiz-adv-x="659" d="M557 666q0 -258 -122 -518.5t-351 -428.5l-23 60q381 375 381 878q0 518 -381 895l23 58q229 -166 351 -426t122 -518z" />
<glyph unicode="*" horiz-adv-x="804" d="M702 1006l-38 -82l-240 157l25 -297h-91l27 295l-244 -151l-39 84l277 102l-277 98l39 84l244 -151l-27 295h91l-25 -295l240 155l38 -81l-268 -107z" />
<glyph unicode="+" horiz-adv-x="1228" d="M1126 610h-469v-475h-84v475h-471v80h469v475h84v-475h471v-80z" />
<glyph unicode="," horiz-adv-x="356" d="M274 129l-161 -377l-62 23l101 354h122z" />
<glyph unicode="-" horiz-adv-x="655" d="M553 680l-451 -2v80h451v-78z" />
<glyph unicode="." horiz-adv-x="329" d="M248 61.5q0 -34.5 -24.5 -59.5t-59.5 -25t-58.5 25t-23.5 59q0 33 24.5 57.5t57.5 24.5q35 0 59.5 -23.5t24.5 -58z" />
<glyph unicode="/" horiz-adv-x="1005" d="M965 1483l-838 -1559l-86 25l840 1556z" />
<glyph unicode="0" horiz-adv-x="1253" d="M1151 723q0 -348 -140.5 -548t-384 -200t-384 200t-140.5 548q0 346 140.5 545.5t384 199.5t384 -199.5t140.5 -545.5zM1059 725q0 297 -110.5 482.5t-323.5 185.5t-321.5 -186.5t-108.5 -487.5q0 -299 108.5 -484.5t321.5 -185.5t323.5 188.5t110.5 487.5z" />
<glyph unicode="1" horiz-adv-x="706" d="M502 0h-88v1235q-102 -72 -271 -72v66q147 10 207 64.5t80 146.5h72v-1440z" />
<glyph unicode="2" horiz-adv-x="1165" d="M1032 1061q0 -147 -77.5 -261t-247.5 -245l-139 -101q-105 -77 -160.5 -121t-117 -117t-77.5 -138h801v-78h-912q8 78 45 149.5t104.5 139t124 115t146.5 113t127 95.5q94 76 147.5 129.5t98.5 139.5t45 180q0 160 -104.5 244t-276.5 84q-125 0 -216 -62.5t-132 -148.5 l-64 39q53 109 163 178t255 69q219 0 343 -108.5t124 -294.5z" />
<glyph unicode="3" horiz-adv-x="1112" d="M989 395q0 -193 -124 -306.5t-347 -113.5q-154 0 -270.5 75t-165.5 214l72 45q41 -131 140 -194.5t228 -63.5q166 0 270.5 82t104.5 254q0 326 -389 326h-148v75h136q360 0 360 299q0 135 -87 218.5t-251 83.5q-109 0 -195.5 -61.5t-123.5 -153.5l-72 40q121 250 405 250 q201 0 309.5 -103.5t108.5 -264.5q0 -279 -250 -342q135 -27 212 -120.5t77 -238.5z" />
<glyph unicode="4" horiz-adv-x="1265" d="M1163 367h-225v-367h-86v367h-750v82l715 991h121v-996h225v-77zM852 444v908l-662 -908h662z" />
<glyph unicode="5" horiz-adv-x="1175" d="M1073 475q0 -233 -138 -366.5t-376 -133.5q-145 0 -270 62.5t-187 177.5l64 49q137 -213 395 -213q199 0 310.5 112.5t111.5 307.5q0 178 -107.5 284.5t-291.5 106.5q-104 0 -202.5 -50t-156.5 -142l-73 24l36 746h781v-78h-707l-41 -594q86 96 173 132t206 36 q221 0 347 -124t126 -337z" />
<glyph unicode="6" horiz-adv-x="1224" d="M1122 457q0 -221 -142 -353.5t-368 -132.5q-139 0 -241.5 56.5t-158.5 150.5t-83 201.5t-27 226.5q0 160 36 307.5t107.5 272.5t193.5 199.5t278 74.5q70 0 147.5 -22.5t124.5 -53.5l-37 -63q-92 63 -247 63q-123 0 -221.5 -60t-160 -165.5t-97.5 -231.5t-48 -272 q63 137 184 206t269 69q223 0 357 -131t134 -342zM1030 465q0 176 -112.5 281.5t-295 105.5t-305 -112.5t-122.5 -280.5q0 -51 23.5 -117t70.5 -133.5t134 -113.5t195 -46q184 0 298 116t114 300z" />
<glyph unicode="7" horiz-adv-x="1134" d="M1012 1341q-248 -317 -373 -638.5t-154 -702.5h-104q68 731 549 1364h-848v76h930v-99z" />
<glyph unicode="8" horiz-adv-x="1189" d="M1087 385q0 -182 -126.5 -298t-366.5 -116q-238 0 -365 116t-127 298q0 287 304 383q-248 88 -248 332q0 160 115.5 264t320.5 104q207 0 322.5 -104t115.5 -264q0 -244 -248 -332q303 -96 303 -383zM940 1098q0 123 -85 209t-261 86q-174 0 -260 -86t-86 -209 q0 -129 95 -213t251 -84q158 0 252 84t94 213zM995 389q0 162 -113.5 252t-287.5 90q-172 0 -285.5 -90t-113.5 -252q0 -156 106.5 -249t292.5 -93t293.5 93t107.5 249z" />
<glyph unicode="9" horiz-adv-x="1224" d="M1122 834q0 -160 -35.5 -307.5t-107.5 -273.5t-193.5 -201t-277.5 -75q-70 0 -147.5 23t-124.5 55l36 64q92 -63 248 -64q123 0 221.5 60.5t160 166t97 230.5t48.5 270q-63 -137 -184.5 -204.5t-268.5 -67.5q-223 0 -357.5 131t-134.5 342q0 221 142.5 352t367.5 131 q139 0 241.5 -55t159 -149.5t83 -201.5t26.5 -226zM1032 981q0 51 -24.5 116.5t-71.5 133t-133 113t-195 45.5q-186 0 -298.5 -115t-112.5 -299q0 -178 111.5 -283.5t293.5 -105.5t306 113.5t124 281.5z" />
<glyph unicode=":" horiz-adv-x="370" d="M268 944q0 -35 -24.5 -59.5t-59 -24.5t-58.5 24.5t-24 59.5t25 58.5t57 23.5q35 0 59.5 -23.5t24.5 -58.5zM268 61.5q0 -34.5 -24.5 -59.5t-59 -25t-58.5 25t-24 59q0 33 25 57.5t57 24.5q35 0 59.5 -23.5t24.5 -58z" />
<glyph unicode=";" horiz-adv-x="391" d="M289 944q0 -35 -23.5 -59.5t-58.5 -24.5t-58.5 24.5t-23.5 59.5t23.5 58.5t58.5 23.5t58.5 -23.5t23.5 -58.5zM274 127l-161 -375l-62 23l101 352h122z" />
<glyph unicode="&#x37e;" horiz-adv-x="391" d="M289 944q0 -35 -23.5 -59.5t-58.5 -24.5t-58.5 24.5t-23.5 59.5t23.5 58.5t58.5 23.5t58.5 -23.5t23.5 -58.5zM274 127l-161 -375l-62 23l101 352h122z" />
<glyph unicode="&#x3c;" horiz-adv-x="1073" d="M991 106l-909 551v115l909 549v-100l-844 -504l844 -508v-103z" />
<glyph unicode="=" horiz-adv-x="1263" d="M1161 821h-1059v80h1059v-80zM1161 403h-1059v80h1059v-80z" />
<glyph unicode="&#x3e;" horiz-adv-x="1073" d="M991 657l-909 -551v103l844 508l-844 504v100l909 -549v-115z" />
<glyph unicode="?" horiz-adv-x="1040" d="M958 1102q0 -133 -57 -210t-196 -179q-115 -86 -141.5 -143.5t-26.5 -190.5h-99q2 137 39 216t158 169q127 94 162 135q66 80 65 197q0 119 -89 200.5t-247 81.5q-135 0 -216 -46t-148 -167l-80 47q86 141 189.5 196.5t258.5 55.5q195 0 311.5 -99t116.5 -263zM573 61 q0 -35 -23.5 -59.5t-58 -24.5t-58 25t-23.5 59q0 33 24.5 57.5t57 24.5t57 -24.5t24.5 -57.5z" />
<glyph unicode="@" horiz-adv-x="1720" d="M1597 815q0 -252 -98 -409.5t-246 -157.5q-82 0 -128 38t-52 138q-119 -156 -291 -156q-113 0 -177 91.5t-64 240.5q0 182 129 347t297 165q172 0 247 -160l46 121h92l-193 -616q-8 -23 -8 -51q0 -45 26.5 -74t79.5 -29q76 0 134.5 57.5t88 143.5t45 167t15.5 144 q0 268 -166 433t-434 165q-319 0 -539.5 -232.5t-220.5 -574.5q0 -315 195.5 -498.5t486.5 -183.5q256 0 481 176l25 -43q-233 -186 -504 -186q-307 0 -524 197.5t-217 537.5q0 356 234.5 608t584.5 252q295 0 475 -185t180 -466zM1155 825q0 199 -186 199 q-125 0 -226.5 -143.5t-101.5 -280.5q0 -246 180 -246q92 0 173 80t124 201q37 102 37 190z" />
<glyph unicode="A" d="M1184 0h-94l-144 418h-647l-145 -418h-93l521 1440h88zM924 487l-299 875l-301 -875h600z" />
<glyph unicode="B" d="M1133 403q0 -168 -119 -285.5t-287 -117.5h-584v1440h580q145 0 245.5 -100.5t100.5 -243.5q0 -111 -61.5 -196t-163.5 -120q127 -37 208 -139.5t81 -237.5zM981 1087.5q0 114.5 -79 195.5t-191 81h-482v-555h463q117 0 203 82t86 196.5zM1038 406q0 139 -98 235t-248 96 h-463v-661h486q137 0 230 96.5t93 233.5z" />
<glyph unicode="C" horiz-adv-x="1271" d="M1190 1090l-84 -31q-59 154 -170 243t-256 89q-219 0 -351 -192.5t-132 -479.5t132 -478.5t351 -191.5q252 0 385 246l86 -33q-166 -291 -471 -291q-262 0 -420 214t-158 533.5t158 534.5t420 215q176 0 308 -101t202 -277z" />
<glyph unicode="D" horiz-adv-x="1273" d="M1171 721q0 -307 -157.5 -514t-419.5 -207h-451v1440h451q262 0 419.5 -206t157.5 -513zM1077 721q0 272 -132 456.5t-351 184.5h-365v-1284h365q219 0 351 184.5t132 458.5z" />
<glyph unicode="E" horiz-adv-x="1110" d="M1049 0h-906v1440h865v-78h-777v-567h590v-80h-590v-637h818v-78z" />
<glyph unicode="F" horiz-adv-x="1048" d="M1008 1362h-777v-567h631v-80h-631v-715h-88v1440h865v-78z" />
<glyph unicode="G" horiz-adv-x="1347" d="M1245 702q-4 -315 -156.5 -523t-408.5 -208q-262 0 -420 214t-158 533.5t158 534.5t420 215q176 0 308 -101t202 -277l-84 -31q-59 154 -170 243t-256 89q-219 0 -351 -192.5t-132 -479.5t132 -478.5t351 -191.5q199 0 322.5 160t144.5 414h-402v79h500z" />
<glyph unicode="H" horiz-adv-x="1323" d="M1180 0h-88v707h-863v-707h-86v1440h86v-656h863v656h88v-1440z" />
<glyph unicode="I" horiz-adv-x="372" d="M229 0h-86v1440h86v-1440z" />
<glyph unicode="J" horiz-adv-x="1003" d="M860 434q0 -215 -112.5 -339t-298.5 -124q-170 0 -289 109.5t-129 273.5l88 27q0 -139 96 -235.5t233.5 -96.5t230.5 96.5t93 235.5v1059h88v-1006z" />
<glyph unicode="K" horiz-adv-x="1206" d="M1155 0h-100l-482 807l-344 -393v-414h-86v1440h86v-901l787 901h114l-495 -566z" />
<glyph unicode="L" horiz-adv-x="1026" d="M985 0h-842v1438h86v-1360h756v-78z" />
<glyph unicode="M" horiz-adv-x="1509" d="M1366 0h-88v1260l-516 -1260h-14l-517 1260v-1260h-88v1440h103l510 -1252l508 1252h102v-1440z" />
<glyph unicode="N" horiz-adv-x="1310" d="M1167 0h-92l-844 1292v-1292h-88v1440h97l841 -1288l-2 1288h88v-1440z" />
<glyph unicode="O" horiz-adv-x="1359" d="M1257 718.5q0 -319.5 -157.5 -533.5t-419.5 -214t-420 214t-158 533.5t158 534.5t420 215t419.5 -215t157.5 -534.5zM1165 719q0 287 -133 479.5t-352 192.5t-351 -192.5t-132 -479.5t132 -478.5t351 -191.5q221 0 353 191.5t132 478.5z" />
<glyph unicode="P" horiz-adv-x="1167" d="M1126 1036q0 -168 -105.5 -285.5t-275.5 -117.5h-516v-633h-86v1440h602q170 0 275.5 -118t105.5 -286zM1032 1036h2q0 135 -81 229.5t-214 94.5h-510v-647h510q133 0 213 94t80 229z" />
<glyph unicode="Q" horiz-adv-x="1359" d="M1257 719q0 -217 -76.5 -393t-213.5 -269l106 -151l-69 -49l-113 157q-96 -43 -211 -43q-262 0 -420 214t-158 533.5t158 534.5t420 215t419.5 -215t157.5 -534zM1165 719q0 287 -133 479.5t-352 192.5t-351 -192.5t-132 -479.5t132 -478.5t351 -191.5q90 0 162 33 l-111 158l70 49l119 -164q117 84 181 241.5t64 352.5z" />
<glyph unicode="R" horiz-adv-x="1183" d="M1133 0h-103l-403 645h-398v-645h-86v1440h602q170 0 275.5 -115t105.5 -283q0 -166 -108.5 -281.5t-278.5 -115.5h-10zM1034 1042.5q0 135.5 -81 226.5t-214 91h-510v-635h510q133 0 214 91t81 226.5z" />
<glyph unicode="S" horiz-adv-x="1105" d="M1024 365q0 -182 -131 -289t-332 -107q-324 0 -459 310l72 51q104 -281 391 -281q170 0 268.5 88t98.5 232q0 104 -94.5 189t-327.5 171q-209 76 -297 166t-88 219q0 172 124 263t314 91q301 0 453 -241l-68 -51q-139 215 -391 215q-147 0 -242.5 -68t-95.5 -201 q0 -113 73 -178t271 -145q268 -104 364.5 -200.5t96.5 -233.5z" />
<glyph unicode="T" horiz-adv-x="1046" d="M1006 1362h-441v-1362h-86v1360h-438v80h965v-78z" />
<glyph unicode="U" horiz-adv-x="1226" d="M1114 590q0 -313 -114.5 -466t-387 -153t-386 152.5t-113.5 466.5v850h88v-860q0 -272 92 -401.5t319 -129.5q229 0 321.5 129t92.5 402v860h88v-850z" />
<glyph unicode="V" horiz-adv-x="1196" d="M1135 1440l-494 -1440h-92l-488 1440h95l440 -1354l451 1354h88z" />
<glyph unicode="W" horiz-adv-x="1683" d="M1622 1440l-342 -1440h-96l-342 1309l-344 -1309h-95l-342 1440h91l303 -1327l344 1327h84l346 -1327l303 1327h90z" />
<glyph unicode="X" horiz-adv-x="1185" d="M1124 0h-114l-418 698l-416 -698h-115l467 766l-411 674h114l361 -606l360 606h115l-410 -674z" />
<glyph unicode="Y" horiz-adv-x="1140" d="M1110 1440l-496 -860v-580h-88v580l-495 860h100l438 -781l441 781h100z" />
<glyph unicode="Z" horiz-adv-x="1132" d="M1061 1358l-899 -1280h891v-78h-981v82l899 1278h-852v80h942v-82z" />
<glyph unicode="[" horiz-adv-x="536" d="M455 -260h-312v1847h312v-78h-236v-1691h236v-78z" />
<glyph unicode="\" horiz-adv-x="819" d="M788 -92h-83l-674 1624h86z" />
<glyph unicode="]" horiz-adv-x="536" d="M393 -260h-311v78h235v1691h-235v78h311v-1847z" />
<glyph unicode="^" horiz-adv-x="1083" d="M940 750h-94l-303 608l-307 -608h-93l359 690h86z" />
<glyph unicode="_" horiz-adv-x="1038" d="M1049 -260h-1059v65h1059v-65z" />
<glyph unicode="`" horiz-adv-x="700" d="M557 1182l-84 -2l-330 309h156z" />
<glyph unicode="a" horiz-adv-x="1056" d="M954 0h-49q-59 0 -84.5 26.5t-25.5 84.5v39q-59 -80 -163 -126.5t-212 -46.5q-135 0 -226.5 75t-91.5 220q0 170 125 261.5t305 91.5q139 0 263 -50v134q0 121 -82 192.5t-197 71.5q-82 0 -159.5 -43t-127.5 -125l-67 49q47 90 151.5 144.5t218.5 54.5q147 0 249 -89.5 t102 -267.5v-585q0 -35 41 -35h30v-76zM795 258v223q-98 68 -252 68q-147 0 -246.5 -74t-99.5 -194q0 -109 65.5 -166.5t167.5 -57.5q98 0 198.5 53.5t166.5 147.5z" />
<glyph unicode="b" horiz-adv-x="1036" d="M934 514q0 -225 -108.5 -381t-274.5 -156q-219 0 -320 185v-162h-88v1440h88v-598q117 211 328 211q164 0 269.5 -156t105.5 -383zM840 514q0 197 -83 330t-214 133q-111 0 -196 -93t-116 -241v-311q41 -127 121 -204t185 -77q133 0 218 134t85 329z" />
<glyph unicode="c" horiz-adv-x="966" d="M885 860l-76 -51q-96 162 -270 162q-152 0 -246 -127t-94 -332t94 -332t246 -127q172 0 270 162l76 -49q-121 -193 -346 -193q-195 0 -316 148.5t-121 390.5t121 390.5t316 148.5q227 -1 346 -191z" />
<glyph unicode="d" horiz-adv-x="1036" d="M893 0h-88v162q-100 -184 -320 -185q-166 0 -274.5 156t-108.5 381q0 227 105.5 383t269.5 156q211 0 328 -211v598h88v-1440zM805 332v311q-31 147 -116 240.5t-197 93.5q-131 0 -213 -133t-82 -330q0 -195 85 -329t218 -134q104 0 184 77t121 204z" />
<glyph unicode="e" horiz-adv-x="1034" d="M942 512q0 -4 -1 -10t-1 -8h-741q4 -197 96 -319t233 -122q178 0 275 162l78 -49q-57 -90 -149.5 -141.5t-203.5 -51.5q-188 0 -307 149.5t-119 389.5q0 242 116 390.5t304.5 148.5t304 -148.5t115.5 -390.5zM844 567q-12 182 -100.5 293t-221.5 111q-135 0 -222 -109.5 t-99 -294.5h643z" />
<glyph unicode="f" horiz-adv-x="641" d="M569 1341q-47 45 -104 45t-97 -43t-40 -116v-201h237v-76h-237v-950h-90v950h-166v76h166v180q0 117 61 187.5t154 70.5q59 0 116 -30v-93z" />
<glyph unicode="g" horiz-adv-x="1036" d="M893 53q0 -238 -123 -362.5t-291 -124.5q-96 0 -179 43t-130 121l61 53q94 -141 244 -141q131 0 230.5 110.5t99.5 282.5v147q-117 -209 -328 -209q-164 0 -269.5 156t-105.5 383q0 225 108.5 381t274.5 156q219 0 320 -187v164h88v-973zM805 383v311q-41 127 -121 204 t-184 77q-133 0 -218 -134t-85 -329q0 -197 81.5 -330t213.5 -133q113 0 197.5 93.5t115.5 240.5z" />
<glyph unicode="h" horiz-adv-x="1017" d="M885 623v-623h-90v645q0 156 -69 240t-194 84q-121 0 -210 -85t-89 -255v-629h-90v1440h90v-563q94 170 310 170q170 0 256 -117t86 -307z" />
<glyph unicode="i" horiz-adv-x="432" d="M289 1393q0 -31 -21.5 -52.5t-50.5 -21.5q-31 0 -52.5 21.5t-21.5 52.5q0 29 21.5 50t52.5 21q29 0 50.5 -21t21.5 -50zM260 0h-88v1026h88v-1026z" />
<glyph unicode="j" horiz-adv-x="407" d="M264 1397q0 -31 -21.5 -52.5t-49.5 -21.5q-31 0 -52.5 21.5t-21.5 52.5q0 29 21.5 50t52.5 21q29 0 50 -21t21 -50zM236 -168q0 -117 -57.5 -187.5t-145.5 -70.5q-57 0 -115 31l27 76q35 -29 80 -29q51 0 86.5 43t35.5 117v1214h89v-1194z" />
<glyph unicode="k" horiz-adv-x="958" d="M907 0h-104l-344 575l-226 -258v-317h-90v1440h90v-1002l517 588h110l-342 -383z" />
<glyph unicode="l" horiz-adv-x="374" d="M231 0h-88v1440h88v-1440z" />
<glyph unicode="m" horiz-adv-x="1587" d="M1444 623v-623h-92v645q0 160 -69 244t-169 84q-109 0 -193.5 -96.5t-84.5 -253.5v-623h-91v645q0 160 -69.5 244t-169.5 84q-109 0 -191 -93.5t-82 -250.5v-629h-90v1026h90v-149q45 82 123 128t164 46q94 0 173 -62.5t106 -175.5q41 115 128 178.5t185 63.5 q135 0 233.5 -109.5t98.5 -322.5z" />
<glyph unicode="n" horiz-adv-x="1028" d="M885 623v-623h-90v645q0 156 -69 240t-194 84q-121 0 -210 -85t-89 -255v-629h-90v1026h90v-149q94 170 310 170q170 0 256 -117t86 -307z" />
<glyph unicode="o" horiz-adv-x="1075" d="M973 514q0 -246 -117 -393.5t-319 -147.5q-201 0 -318 147.5t-117 393.5q0 244 117 391.5t318 147.5q203 0 319.5 -147.5t116.5 -391.5zM877 514q0 207 -90.5 332t-250 125t-248.5 -125t-89 -332q0 -209 89 -334t248.5 -125t250 125t90.5 334z" />
<glyph unicode="p" horiz-adv-x="1036" d="M934 512q0 -227 -105.5 -383t-269.5 -156q-211 0 -328 209v-590h-88v1434h88v-164q100 186 320 187q166 0 274.5 -156t108.5 -381zM840 512q0 195 -85 329t-218 134q-104 0 -184.5 -77t-121.5 -204v-311q31 -147 116 -240.5t196 -93.5q131 0 214 133t83 330z" />
<glyph unicode="q" horiz-adv-x="1036" d="M893 -408h-88v590q-117 -209 -328 -209q-164 0 -269.5 156t-105.5 383q0 225 108.5 381t274.5 156q219 0 320 -187v164h88v-1434zM805 383v311q-41 127 -121 204t-184 77q-133 0 -218 -134t-85 -329q0 -197 81.5 -330t213.5 -133q113 0 197.5 93.5t115.5 240.5z" />
<glyph unicode="r" horiz-adv-x="700" d="M670 1026l-33 -84q-39 23 -105 23q-121 0 -210 -86t-89 -256v-623h-90v1026h90v-149q94 170 310 170q74 -1 127 -21z" />
<glyph unicode="s" horiz-adv-x="858" d="M776 258q0 -125 -88 -203t-244 -78q-225 0 -342 197l68 49q102 -168 276 -168q115 0 175.5 54.5t60.5 142.5q0 84 -63.5 140.5t-241.5 115.5q-264 88 -264 287q0 111 84 182.5t233 71.5q199 0 328 -168l-68 -52q-100 143 -262 144q-100 0 -159.5 -46t-59.5 -132 q0 -78 53 -125t178 -92q186 -68 261 -141t75 -179z" />
<glyph unicode="t" horiz-adv-x="681" d="M590 6q-57 -31 -117 -31q-92 0 -153.5 71t-61.5 187v717h-166v76h166v414h90v-414h238v-76h-238v-737q0 -74 40 -117t97.5 -43t104.5 45v-92z" />
<glyph unicode="u" horiz-adv-x="1007" d="M864 0h-90v150q-94 -170 -309 -170q-170 0 -256 116.5t-86 306.5v623h90v-645q0 -156 68.5 -240t193.5 -84q121 0 210 85t89 255v629h90v-1026z" />
<glyph unicode="v" horiz-adv-x="948" d="M887 1026l-381 -1026h-84l-361 1026h93l313 -926l330 926h90z" />
<glyph unicode="w" horiz-adv-x="1437" d="M1376 1026l-309 -1026h-84l-264 926l-264 -926h-86l-308 1026h89l262 -934l264 934h84l266 -934l262 934h88z" />
<glyph unicode="x" horiz-adv-x="911" d="M850 0h-109l-286 459l-293 -459h-101l345 530l-320 496h111l262 -418l266 418h98l-317 -494z" />
<glyph unicode="y" horiz-adv-x="952" d="M891 1026l-500 -1319q-25 -63 -75 -98t-109 -35q-27 0 -64 16v68q33 -16 64 -16q84 0 119 94l100 260l-365 1030h91l315 -932l332 932h92z" />
<glyph unicode="z" horiz-adv-x="788" d="M737 0h-686v68l576 886h-531v72h635v-65l-575 -885h581v-76z" />
<glyph unicode="{" horiz-adv-x="698" d="M616 -264q-180 16 -248.5 113.5t-68.5 306.5v219q0 203 -156 274v72q154 59 154 266v164q0 211 69.5 316.5t249.5 119.5v-71q-135 -16 -183 -91t-48 -235v-164q0 -141 -29.5 -215t-113.5 -127q86 -45 115.5 -117.5t29.5 -193.5v-2l-2 -238q0 -158 49 -231.5t182 -91.5 v-74z" />
<glyph unicode="|" horiz-adv-x="315" d="M418 1587l-436 -2031h-84l434 2031h86z" />
<glyph unicode="}" horiz-adv-x="698" d="M555 649q-156 -72 -156 -274v-219q0 -209 -68.5 -306.5t-248.5 -113.5v74q133 18 182 91.5t47 231.5v229v7q0 123 28 195.5t118 119.5q-84 53 -114 127t-30 215v164q0 160 -48 234.5t-183 91.5v71q180 -14 248.5 -119.5t68.5 -316.5v-164q0 -207 156 -266v-72z" />
<glyph unicode="~" horiz-adv-x="1185" d="M1042 729q-100 -172 -251 -172q-66 0 -209.5 74t-206.5 74q-31 0 -54.5 -8.5t-47 -38t-28.5 -37l-32 -50.5l-70 60q84 172 244 172q70 0 213 -74t201 -74q59 0 97 32t77 101z" />
<glyph unicode="&#xa1;" horiz-adv-x="452" d="M309 969q0 -35 -24.5 -58.5t-59.5 -23.5q-33 0 -57.5 23.5t-24.5 58.5t23.5 59.5t58.5 24.5t59.5 -24.5t24.5 -59.5zM276 -410h-94v664l27 403h43l24 -403v-664z" />
<glyph unicode="&#xa2;" horiz-adv-x="946" d="M885 1016l-76 -51q-96 162 -270 161q-152 0 -245 -126t-93 -332q0 -205 93 -332t245 -127q174 0 270 162l76 -49q-113 -180 -318 -193v-244h-88v248q-172 23 -274.5 168t-102.5 366.5t102.5 367t274.5 167.5v238h88v-234q205 -12 318 -190z" />
<glyph unicode="&#xa3;" horiz-adv-x="1153" d="M1061 303q0 -137 -87 -220t-229 -83h-602v1092q0 164 109.5 267t298.5 103q117 0 194.5 -28.5t145.5 -100.5l-76 -55q-53 53 -111.5 72.5t-150.5 19.5q-160 0 -235.5 -80t-75.5 -205v-198h465v-80h-465v-729h487q98 0 174 62.5t76 160.5q0 121 -129 211l43 70 q66 -37 117 -116t51 -163z" />
<glyph unicode="&#xa4;" horiz-adv-x="1353" d="M1292 1090l-86 -31q-59 154 -169.5 243t-256.5 89q-178 0 -301 -132.5t-164 -345.5h553l-16 -73h-549q-6 -57 -6 -121q0 -39 4 -105h567l-16 -75h-541q39 -219 164 -354.5t305 -135.5q252 0 385 246l86 -31q-76 -137 -196.5 -215t-274.5 -78q-221 0 -370.5 158 t-192.5 410h-217l16 75h193q-6 53 -6 105q0 63 6 121h-209l16 73h205q45 248 192.5 401.5t366.5 153.5q176 0 308 -101t204 -277z" />
<glyph unicode="&#xa5;" horiz-adv-x="1181" d="M1130 1440l-428 -742h293v-71h-333l-27 -47v-150h360v-72h-360v-358h-88v358h-361v72h361v150l-27 47h-334v71h293l-428 742h101l438 -781l440 781h100z" />
<glyph unicode="&#xa6;" horiz-adv-x="503" d="M299 1440v-531h-94v531h94zM299 0h-94v528h94v-528z" />
<glyph unicode="&#xa7;" horiz-adv-x="1169" d="M1067 637q0 -217 -276 -350q90 -57 132 -113.5t42 -138.5q0 -127 -103.5 -207t-279.5 -80q-223 0 -412 152l57 61q166 -131 357 -131q127 0 207.5 58.5t80.5 148.5q0 88 -69.5 140t-241.5 112q-252 88 -355.5 179t-103.5 228q0 182 285 322q-160 86 -160 233 q0 117 95.5 198t257.5 81q188 0 370 -139l-57 -60q-152 123 -330 123q-106 0 -175 -54t-69 -140q0 -45 24 -84t49.5 -61.5t80.5 -47.5t77.5 -33t82.5 -26q246 -76 340 -155t94 -216zM979 627q0 61 -24.5 108t-77 81t-90 50.5t-107.5 40.5q-92 35 -215 74 q-272 -121 -272 -301q0 -53 36.5 -102.5t108.5 -90.5t126 -65.5t143 -57.5l106 -40q266 135 266 303z" />
<glyph unicode="&#xa8;" horiz-adv-x="675" d="M573 1325q0 -27 -20.5 -46t-47 -19t-46 19t-19.5 46t19.5 47.5t46 20.5t47 -20.5t20.5 -47.5zM236 1325q0 -27 -20.5 -46t-47.5 -19t-46.5 19t-19.5 46t19.5 47.5t46.5 20.5q29 0 48.5 -20.5t19.5 -47.5z" />
<glyph unicode="&#xa9;" horiz-adv-x="1714" d="M1591 717q0 -315 -210 -523t-525 -208q-307 0 -520 206.5t-213 528.5q0 317 212 525t521 208q317 0 527 -211t208 -526zM1530 719q0 287 -192.5 481.5t-477.5 194.5q-287 0 -480.5 -193.5t-193.5 -480.5q0 -289 193.5 -482.5t476.5 -193.5q287 0 479.5 192.5t194.5 481.5 zM1169 436q-123 -145 -305 -145q-162 0 -273.5 119.5t-111.5 308.5q0 184 110.5 308t278.5 124q176 0 299 -141l-55 -47q-109 121 -244 120.5t-225 -103.5t-90 -255q0 -160 91 -263.5t224 -103.5q139 0 250 123z" />
<glyph unicode="&#xaa;" horiz-adv-x="757" d="M655 801h-61q-35 0 -51.5 20.5t-22.5 73.5q-100 -106 -213 -107q-90 0 -147.5 50.5t-57.5 140.5q0 104 88.5 161.5t208.5 57.5q55 0 125 -20v65q0 147 -149 148q-68 0 -106 -21.5t-72 -75.5l-54 41q82 119 242 119q86 0 152.5 -44t66.5 -124v-393q0 -45 45 -45h6v-47z M524 995v99q-31 41 -102 41q-47 0 -100.5 -14.5t-97.5 -52.5t-44 -91q0 -63 37 -94t94 -31q74 0 138.5 44t74.5 99z" />
<glyph unicode="&#xab;" horiz-adv-x="960" d="M868 156h-94l-319 430l323 450l82 -18l-313 -432zM508 156h-96l-320 430l324 450l82 -18l-314 -432z" />
<glyph unicode="&#xac;" horiz-adv-x="1273" d="M1171 244h-77v360h-1012v82h1089v-442z" />
<glyph unicode="&#xad;" horiz-adv-x="655" d="M553 680l-451 -2v80h451v-78z" />
<glyph unicode="&#xae;" horiz-adv-x="1714" d="M1591 717q0 -315 -210 -523t-525 -208q-307 0 -520 206.5t-213 528.5q0 317 212 525t521 208q317 0 527 -211t208 -526zM1530 719q0 287 -192.5 481.5t-477.5 194.5q-287 0 -480.5 -193.5t-193.5 -480.5q0 -289 193.5 -482.5t476.5 -193.5q287 0 479.5 192.5t194.5 481.5 zM1165 930q0 -88 -50 -147.5t-146 -71.5q45 -41 64.5 -71t43.5 -97l35 -102q27 -77 43 -119h-86q-14 35 -35.5 106.5t-36.5 106.5q-68 170 -178 170h-145v-383h-70v813h281q280 0 280 -205zM1096 918q0 164 -226 163h-196v-323h205q217 0 217 160z" />
<glyph unicode="&#xaf;" horiz-adv-x="804" d="M662 1268h-519v98h519v-98z" />
<glyph unicode="&#x2c9;" horiz-adv-x="804" d="M662 1268h-519v98h519v-98z" />
<glyph unicode="&#xb0;" horiz-adv-x="888" d="M786 1149q0 -147 -98 -248.5t-244 -101.5q-143 0 -242.5 101t-99.5 249q0 145 99.5 244.5t242.5 99.5q145 0 243.5 -99.5t98.5 -244.5zM684 1149q0 104 -67.5 175t-172.5 71q-102 0 -170.5 -71t-68.5 -175q0 -106 68.5 -178t170.5 -72q104 0 172 70.5t68 179.5z" />
<glyph unicode="&#xb2;" horiz-adv-x="923" d="M801 420h-674q10 121 118.5 249t325.5 285q139 100 140 238q0 86 -66.5 141.5t-177.5 55.5q-94 0 -169 -46.5t-105 -130.5l-70 39q45 104 142 158.5t214 54.5q137 0 227.5 -77.5t90.5 -208.5q0 -94 -55.5 -172t-194.5 -175q-104 -74 -192.5 -165t-114.5 -166h561v-80z " />
<glyph unicode="&#xb3;" horiz-adv-x="989" d="M864 694q0 -119 -93 -203.5t-286 -84.5q-133 0 -240.5 62t-146.5 159l76 43q35 -80 117 -132.5t186 -52.5q133 0 211 58.5t78 158.5q0 98 -70.5 157t-201.5 59h-142v77h115q125 0 194.5 55.5t69.5 137.5t-66.5 141.5t-171 59.5t-174 -44.5t-102.5 -111.5l-80 39 q109 193 357 192q164 0 252 -72.5t88 -191.5q0 -168 -172 -231q102 -35 152 -111t50 -164z" />
<glyph unicode="&#xb4;" horiz-adv-x="614" d="M512 1489l-328 -309h-82l254 309h156z" />
<glyph unicode="&#xb5;" horiz-adv-x="1028" d="M885 0h-90v147q-92 -168 -310 -167q-186 0 -256 135v-525h-86v1436h90v-584q0 -182 55.5 -283.5t205.5 -101.5q143 0 222 96.5t79 276.5v596h90v-1026z" />
<glyph unicode="&#x3bc;" horiz-adv-x="1028" d="M885 0h-90v147q-92 -168 -310 -167q-186 0 -256 135v-525h-86v1436h90v-584q0 -182 55.5 -283.5t205.5 -101.5q143 0 222 96.5t79 276.5v596h90v-1026z" />
<glyph unicode="&#xb6;" horiz-adv-x="1263" d="M1120 1362h-59v-1772h-84v1772h-281v-1772h-84v1055h-82q-168 0 -287.5 117t-119.5 280.5t119.5 280.5t287.5 117h590v-78z" />
<glyph unicode="&#xb7;" horiz-adv-x="411" d="M289 743.5q0 -34.5 -24.5 -59.5t-59.5 -25t-58.5 25t-23.5 59.5t24.5 58t57.5 23.5q35 0 59.5 -23.5t24.5 -58z" />
<glyph unicode="&#x22c5;" horiz-adv-x="411" d="M289 743.5q0 -34.5 -24.5 -59.5t-59.5 -25t-58.5 25t-23.5 59.5t24.5 58t57.5 23.5q35 0 59.5 -23.5t24.5 -58z" />
<glyph unicode="&#xb8;" horiz-adv-x="688" d="M545 -266q0 -68 -68.5 -111t-175.5 -43q-72 0 -158 35l17 51q68 -31 141 -31q68 0 120 30t52 67t-24.5 59.5t-67.5 22.5q-84 0 -119 -25q-45 14 -47 14l100 211h56l-82 -168q49 20 108 21q66 0 107 -38t41 -95z" />
<glyph unicode="&#xb9;" horiz-adv-x="550" d="M381 428h-86v832q-86 -35 -195 -35h-2v69q55 4 91 13.5t71 42t47 88.5h74v-1010z" />
<glyph unicode="&#xba;" horiz-adv-x="770" d="M668 1135q0 -137 -73 -232.5t-210 -95.5q-131 0 -207 90t-76 236q0 150 77 238.5t204 88.5q131 0 207 -90t78 -235zM586 1135q0 109 -47 185.5t-150 76.5q-66 0 -111 -31t-63 -80t-24.5 -86t-6.5 -74q0 -109 47.5 -182.5t149.5 -73.5q96 0 150.5 72t54.5 193z" />
<glyph unicode="&#xbb;" horiz-adv-x="960" d="M868 586l-319 -430h-96l323 430l-313 432l82 18zM506 586l-318 -430h-96l322 430l-314 432l82 18z" />
<glyph unicode="&#xbc;" horiz-adv-x="1888" d="M1796 342v-74h-158l-2 -268h-88v268h-569v64l553 694h106v-684h158zM1325 1483l-838 -1559l-86 25l838 1556zM381 428h-86v832q-86 -35 -195 -35h-2v69q55 4 91 13.5t71 42t47 88.5h74v-1010zM1548 907l-452 -565h452v565z" />
<glyph unicode="&#xbd;" horiz-adv-x="1994" d="M1882 2h-674q10 121 120 248t327 287q137 100 137 237q0 86 -66.5 140.5t-177.5 54.5q-94 0 -167.5 -46t-104.5 -130l-70 41q45 102 142.5 157.5t212.5 55.5q139 0 228 -78t89 -209q0 -96 -55.5 -172t-194.5 -174q-104 -74 -192 -165t-115 -167h561v-80zM1325 1483 l-838 -1559l-86 25l838 1556zM381 428h-86v832q-86 -35 -195 -35h-2v69q55 4 91 13.5t71 42t47 88.5h74v-1010z" />
<glyph unicode="&#xbe;" horiz-adv-x="2269" d="M2179 342v-74h-160v-268h-90v268h-567v64l551 694h106v-684h160zM1686 1483l-838 -1559l-88 25l839 1556zM864 694q0 -119 -93 -203.5t-286 -84.5q-133 0 -240.5 62t-146.5 159l76 43q35 -80 117 -132.5t186 -52.5q133 0 211 58.5t78 158.5q0 98 -70.5 157t-201.5 59 h-142v77h115q125 0 194.5 55.5t69.5 137.5t-66.5 141.5t-171 59.5t-174 -44.5t-102.5 -111.5l-80 39q109 193 357 192q164 0 252 -72.5t88 -191.5q0 -168 -172 -231q102 -35 152 -111t50 -164zM1929 907l-452 -565h452v565z" />
<glyph unicode="&#xbf;" horiz-adv-x="1040" d="M633 964.5q0 -34.5 -24.5 -59t-59.5 -24.5t-58.5 24.5t-23.5 59t24.5 58.5t57.5 24q35 0 59.5 -24t24.5 -58.5zM958 -186q-84 -141 -187 -196.5t-261 -55.5q-195 0 -311.5 98t-116.5 262q0 92 35 164t80 114t139 111q115 86 141.5 143.5t26.5 190.5h98q-2 -137 -39 -216 t-157 -167q-127 -94 -164 -141q-61 -78 -62 -193q0 -119 89 -199.5t247 -80.5q133 0 214 45t151 166z" />
<glyph unicode="&#xc0;" d="M672 1565h-84l-330 307h158zM1184 0h-94l-144 418h-647l-145 -418h-93l521 1440h88zM924 487l-299 875l-301 -875h600z" />
<glyph unicode="&#xc1;" d="M979 1872l-328 -307h-82l254 307h156zM1184 0h-94l-144 418h-647l-145 -418h-93l521 1440h88zM924 487l-299 875l-301 -875h600z" />
<glyph unicode="&#xc2;" d="M940 1597h-80l-244 234l-235 -234h-76l258 306h113zM1184 0h-94l-144 418h-647l-145 -418h-93l521 1440h88zM924 487l-299 875l-301 -875h600z" />
<glyph unicode="&#xc3;" d="M954 1782q-27 -182 -196 -183q-66 0 -148 57.5t-129 57.5q-90 0 -114 -115l-76 9q6 86 58 137t136 51q72 0 156 -58.5t119 -58.5q100 0 121 107zM1184 0h-94l-144 418h-647l-145 -418h-93l521 1440h88zM924 487l-299 875l-301 -875h600z" />
<glyph unicode="&#xc4;" d="M858 1648.5q0 -26.5 -20.5 -46t-47 -19.5t-46 19.5t-19.5 46.5q0 29 19.5 48t46.5 19q29 0 48 -20.5t19 -47zM520 1648.5q0 -26.5 -20.5 -46t-47 -19.5t-46 19.5t-19.5 46.5q0 29 19.5 48t46 19t47 -20.5t20.5 -47zM1184 0h-94l-144 418h-647l-145 -418h-93l521 1440h88z M924 487l-299 875l-301 -875h600z" />
<glyph unicode="&#xc5;" d="M823 1704q0 -84 -57 -142.5t-143 -58.5t-143.5 58.5t-57.5 142.5t57.5 142.5t143.5 58.5t143 -58.5t57 -142.5zM1184 0h-94l-144 418h-647l-145 -418h-93l521 1440h88zM754 1704q0 57 -38 95t-95.5 38t-94.5 -38t-37 -95t37 -95t94.5 -38t95.5 38t38 95zM924 487 l-299 875l-301 -875h600z" />
<glyph unicode="&#xc6;" horiz-adv-x="1992" d="M1921 0h-905v408h-590l-264 -408h-101l930 1440h889v-78h-778v-567h592v-80h-592v-637h819v-78zM1016 485v834l-539 -834h539z" />
<glyph unicode="&#xc7;" horiz-adv-x="1275" d="M1194 1104l-86 -35q-59 147 -168 233.5t-260 86.5q-121 0 -217 -56.5t-153.5 -152t-87 -213t-29.5 -246.5q0 -174 50 -321.5t163.5 -248t273.5 -100.5q258 0 385 240l76 -49q-156 -270 -457 -271l-61 -129q45 23 108 23q66 0 107 -39t41 -96q0 -68 -69 -110t-173 -42 q-80 0 -160 35l17 51q66 -33 141 -33q70 0 122 31t52 68q0 35 -24.5 58.5t-69.5 23.5q-86 0 -119 -27q-2 2 -7 3t-15.5 4t-16.5 5l-6 2l80 172q-256 23 -392.5 238t-136.5 512q0 328 155 538.5t425 210.5q180 0 313 -99t199 -267z" />
<glyph unicode="&#xc8;" horiz-adv-x="1110" d="M713 1565h-86l-328 307h156zM1049 0h-906v1440h865v-78h-777v-567h590v-80h-590v-637h818v-78z" />
<glyph unicode="&#xc9;" horiz-adv-x="1110" d="M958 1872l-329 -307h-82l254 307h157zM1049 0h-906v1440h865v-78h-777v-567h590v-80h-590v-637h818v-78z" />
<glyph unicode="&#xca;" horiz-adv-x="1110" d="M897 1597h-80l-244 234l-235 -234h-76l258 306h113zM1049 0h-906v1440h865v-78h-777v-567h590v-80h-590v-637h818v-78z" />
<glyph unicode="&#xcb;" horiz-adv-x="1110" d="M856 1649q0 -27 -19.5 -46.5t-46 -19.5t-47 19.5t-20.5 46t19.5 47t48.5 20.5q27 0 46 -19t19 -48zM518 1649q0 -27 -19.5 -46.5t-46 -19.5t-47 19.5t-20.5 46t20.5 47t47 20.5t46 -19t19.5 -48zM1049 0h-906v1440h865v-78h-777v-567h590v-80h-590v-637h818v-78z" />
<glyph unicode="&#xcc;" horiz-adv-x="372" d="M268 1565h-86l-327 307h155zM266 0h-86v1440h86v-1440z" />
<glyph unicode="&#xcd;" horiz-adv-x="372" d="M545 1872l-330 -307h-80l252 307h158zM227 0h-86v1440h86v-1440z" />
<glyph unicode="&#xce;" horiz-adv-x="372" d="M535 1597h-78l-246 234l-236 -234h-73l256 306h112zM262 0h-88v1440h88v-1440z" />
<glyph unicode="&#xcf;" horiz-adv-x="372" d="M430 1649q0 -27 -19.5 -46.5t-46 -19.5t-47 19.5t-20.5 46t19.5 47t48.5 20.5q27 0 46 -19t19 -48zM92 1649q0 -27 -19.5 -46.5t-46 -19.5t-47 19.5t-20.5 46t20.5 47t47 20.5t46 -19t19.5 -48zM240 0h-88v1440h88v-1440z" />
<glyph unicode="&#xd0;" horiz-adv-x="1329" d="M1217 721q0 -307 -158 -514t-420 -207h-451v733h-147v74h147v633h451q262 0 420 -206t158 -513zM1124 721q0 272 -133 456.5t-352 184.5h-363v-555h402v-74h-402v-655h363q219 0 352 185.5t133 457.5z" />
<glyph unicode="&#xd1;" horiz-adv-x="1310" d="M987 1782q-27 -182 -194 -183q-66 0 -150 57.5t-129 57.5q-90 0 -115 -115l-75 9q8 86 59 137t135 51q72 0 156 -58.5t119 -58.5q100 0 120 107zM1167 0h-92l-844 1292v-1292h-88v1440h97l841 -1288l-2 1288h88v-1440z" />
<glyph unicode="&#xd2;" horiz-adv-x="1359" d="M772 1565h-84l-330 307h158zM1257 718.5q0 -319.5 -157.5 -533.5t-419.5 -214t-420 214t-158 533.5t158 534.5t420 215t419.5 -215t157.5 -534.5zM1165 719q0 287 -133 479.5t-352 192.5t-351 -192.5t-132 -479.5t132 -478.5t351 -191.5q221 0 353 191.5t132 478.5z" />
<glyph unicode="&#xd3;" horiz-adv-x="1359" d="M1010 1872l-330 -307h-82l254 307h158zM1257 718.5q0 -319.5 -157.5 -533.5t-419.5 -214t-420 214t-158 533.5t158 534.5t420 215t419.5 -215t157.5 -534.5zM1165 719q0 287 -133 479.5t-352 192.5t-351 -192.5t-132 -479.5t132 -478.5t351 -191.5q221 0 353 191.5 t132 478.5z" />
<glyph unicode="&#xd4;" horiz-adv-x="1359" d="M999 1597h-77l-246 234l-236 -234h-73l256 306h112zM1257 718.5q0 -319.5 -157.5 -533.5t-419.5 -214t-420 214t-158 533.5t158 534.5t420 215t419.5 -215t157.5 -534.5zM1165 719q0 287 -133 479.5t-352 192.5t-351 -192.5t-132 -479.5t132 -478.5t351 -191.5 q221 0 353 191.5t132 478.5z" />
<glyph unicode="&#xd5;" horiz-adv-x="1359" d="M1016 1782q-29 -182 -197 -183q-66 0 -147.5 57.5t-128.5 57.5q-90 0 -115 -115l-78 9q8 86 59.5 137t135.5 51q72 0 157.5 -58.5t118.5 -58.5q96 0 121 107zM1257 718.5q0 -319.5 -157.5 -533.5t-419.5 -214t-420 214t-158 533.5t158 534.5t420 215t419.5 -215 t157.5 -534.5zM1165 719q0 287 -133 479.5t-352 192.5t-351 -192.5t-132 -479.5t132 -478.5t351 -191.5q221 0 353 191.5t132 478.5z" />
<glyph unicode="&#xd6;" horiz-adv-x="1359" d="M918 1649q0 -27 -19.5 -46.5t-46.5 -19.5t-47.5 19.5t-20.5 46t19.5 47t48.5 20.5q27 0 46.5 -19t19.5 -48zM580 1649q0 -27 -19.5 -46.5t-46.5 -19.5t-47.5 19.5t-20.5 46t20.5 47t47.5 20.5t46.5 -19t19.5 -48zM1257 718.5q0 -319.5 -157.5 -533.5t-419.5 -214 t-420 214t-158 533.5t158 534.5t420 215t419.5 -215t157.5 -534.5zM1165 719q0 287 -133 479.5t-352 192.5t-351 -192.5t-132 -479.5t132 -478.5t351 -191.5q221 0 353 191.5t132 478.5z" />
<glyph unicode="&#xd7;" horiz-adv-x="1116" d="M993 135l-57 -57l-377 383l-379 -383l-57 57l379 383l-379 383l57 57l379 -383l377 383l57 -57l-377 -383z" />
<glyph unicode="&#xd8;" horiz-adv-x="1359" d="M1257 719q0 -319 -157.5 -533.5t-419.5 -214.5q-197 0 -342 129l-133 -215l-58 35l142 230q-186 215 -187 569q0 319 158 534t420 215q201 0 346 -133l135 219l58 -34l-146 -234q184 -213 184 -567zM1165 719q0 295 -139 489l-643 -1034q121 -125 297 -125 q221 0 353 191.5t132 478.5zM981 1262q-125 129 -301 129q-219 0 -351 -192.5t-132 -479.5q0 -303 141 -492z" />
<glyph unicode="&#xd9;" horiz-adv-x="1226" d="M721 1565h-86l-328 307h156zM1114 590q0 -313 -114.5 -466t-387 -153t-386 152.5t-113.5 466.5v850h88v-860q0 -272 92 -401.5t319 -129.5q229 0 321.5 129t92.5 402v860h88v-850z" />
<glyph unicode="&#xda;" horiz-adv-x="1226" d="M948 1872l-330 -307h-79l252 307h157zM1114 590q0 -313 -114.5 -466t-387 -153t-386 152.5t-113.5 466.5v850h88v-860q0 -272 92 -401.5t319 -129.5q229 0 321.5 129t92.5 402v860h88v-850z" />
<glyph unicode="&#xdb;" horiz-adv-x="1226" d="M932 1597h-80l-244 234l-235 -234h-76l258 306h113zM1114 590q0 -313 -114.5 -466t-387 -153t-386 152.5t-113.5 466.5v850h88v-860q0 -272 92 -401.5t319 -129.5q229 0 321.5 129t92.5 402v860h88v-850z" />
<glyph unicode="&#xdc;" horiz-adv-x="1226" d="M850 1648.5q0 -26.5 -19.5 -46t-46 -19.5t-47 19.5t-20.5 46t20.5 47t47 20.5t46 -20.5t19.5 -47zM512 1648.5q0 -26.5 -20.5 -46t-47 -19.5t-46 19.5t-19.5 46t19.5 47t46 20.5t47 -20.5t20.5 -47zM1114 590q0 -313 -114.5 -466t-387 -153t-386 152.5t-113.5 466.5v850 h88v-860q0 -272 92 -401.5t319 -129.5q229 0 321.5 129t92.5 402v860h88v-850z" />
<glyph unicode="&#xdd;" horiz-adv-x="1212" d="M897 1872l-328 -307h-82l254 307h156zM1110 1440l-496 -860v-580h-88v580l-495 860h100l438 -781l441 781h100z" />
<glyph unicode="&#xde;" horiz-adv-x="1193" d="M1141 791q0 -98 -29 -172t-76 -119t-117.5 -72t-143.5 -36t-165 -9h-366v-383h-84v1440h84v-252h401q240 0 368 -85t128 -312zM1057 788q0 106 -35 175t-100.5 101t-130 42t-156.5 10h-391v-657h360q74 0 125 4t118.5 22.5t108.5 51t71 97t30 154.5z" />
<glyph unicode="&#xdf;" horiz-adv-x="1079" d="M977 395q0 -203 -114.5 -307t-309.5 -104q-57 0 -117 24v86q70 -31 119 -31q328 0 328 328q0 164 -133.5 265.5t-327.5 109.5v78q139 0 248.5 71.5t109.5 206.5q0 115 -70.5 188.5t-195.5 73.5q-74 0 -128 -27.5t-83 -67.5t-45 -101.5t-20.5 -108.5t-4.5 -110v-1129 l-90 -35v1164q0 106 15.5 187t55.5 153.5t117 110.5t191 38q174 0 263 -97t89 -237q0 -246 -272 -315q190 -51 282.5 -160t92.5 -254z" />
<glyph unicode="&#xe0;" horiz-adv-x="1056" d="M610 1182l-84 -2l-329 309h157zM954 0h-49q-59 0 -84.5 26.5t-25.5 84.5v39q-59 -80 -163 -126.5t-212 -46.5q-135 0 -226.5 75t-91.5 220q0 170 125 261.5t305 91.5q139 0 263 -50v134q0 121 -82 192.5t-197 71.5q-82 0 -159.5 -43t-127.5 -125l-67 49 q47 90 151.5 144.5t218.5 54.5q147 0 249 -89.5t102 -267.5v-585q0 -35 41 -35h30v-76zM795 258v223q-98 68 -252 68q-147 0 -246.5 -74t-99.5 -194q0 -109 65.5 -166.5t167.5 -57.5q98 0 198.5 53.5t166.5 147.5z" />
<glyph unicode="&#xe1;" horiz-adv-x="1056" d="M823 1489l-327 -309h-82l254 309h155zM954 0h-49q-59 0 -84.5 26.5t-25.5 84.5v39q-59 -80 -163 -126.5t-212 -46.5q-135 0 -226.5 75t-91.5 220q0 170 125 261.5t305 91.5q139 0 263 -50v134q0 121 -82 192.5t-197 71.5q-82 0 -159.5 -43t-127.5 -125l-67 49 q47 90 151.5 144.5t218.5 54.5q147 0 249 -89.5t102 -267.5v-585q0 -35 41 -35h30v-76zM795 258v223q-98 68 -252 68q-147 0 -246.5 -74t-99.5 -194q0 -109 65.5 -166.5t167.5 -57.5q98 0 198.5 53.5t166.5 147.5z" />
<glyph unicode="&#xe2;" horiz-adv-x="1056" d="M813 1171l-80 -2l-244 236l-235 -236h-76l258 308h113zM954 0h-49q-59 0 -84.5 26.5t-25.5 84.5v39q-59 -80 -163 -126.5t-212 -46.5q-135 0 -226.5 75t-91.5 220q0 170 125 261.5t305 91.5q139 0 263 -50v134q0 121 -82 192.5t-197 71.5q-82 0 -159.5 -43t-127.5 -125 l-67 49q47 90 151.5 144.5t218.5 54.5q147 0 249 -89.5t102 -267.5v-585q0 -35 41 -35h30v-76zM795 258v223q-98 68 -252 68q-147 0 -246.5 -74t-99.5 -194q0 -109 65.5 -166.5t167.5 -57.5q98 0 198.5 53.5t166.5 147.5z" />
<glyph unicode="&#xe3;" horiz-adv-x="1056" d="M825 1407q-27 -182 -196 -182q-63 0 -147.5 57t-129.5 57q-90 0 -114 -114l-76 8q8 86 59 137t135 51q70 0 156 -58t119 -58q100 0 121 106zM954 0h-49q-59 0 -84.5 26.5t-25.5 84.5v39q-59 -80 -163 -126.5t-212 -46.5q-135 0 -226.5 75t-91.5 220q0 170 125 261.5 t305 91.5q139 0 263 -50v134q0 121 -82 192.5t-197 71.5q-82 0 -159.5 -43t-127.5 -125l-67 49q47 90 151.5 144.5t218.5 54.5q147 0 249 -89.5t102 -267.5v-585q0 -35 41 -35h30v-76zM795 258v223q-98 68 -252 68q-147 0 -246.5 -74t-99.5 -194q0 -109 65.5 -166.5 t167.5 -57.5q98 0 198.5 53.5t166.5 147.5z" />
<glyph unicode="&#xe4;" horiz-adv-x="1056" d="M770 1325q0 -27 -20.5 -46t-47 -19t-46 19t-19.5 46t19.5 47.5t46 20.5t47 -20.5t20.5 -47.5zM432 1325q0 -27 -20.5 -46t-47 -19t-46 19t-19.5 46t19.5 47.5t46.5 20.5q29 0 48 -20.5t19 -47.5zM954 0h-49q-59 0 -84.5 26.5t-25.5 84.5v39q-59 -80 -163 -126.5 t-212 -46.5q-135 0 -226.5 75t-91.5 220q0 170 125 261.5t305 91.5q139 0 263 -50v134q0 121 -82 192.5t-197 71.5q-82 0 -159.5 -43t-127.5 -125l-67 49q47 90 151.5 144.5t218.5 54.5q147 0 249 -89.5t102 -267.5v-585q0 -35 41 -35h30v-76zM795 258v223q-98 68 -252 68 q-147 0 -246.5 -74t-99.5 -194q0 -109 65.5 -166.5t167.5 -57.5q98 0 198.5 53.5t166.5 147.5z" />
<glyph unicode="&#xe5;" horiz-adv-x="1056" d="M698 1380q0 -86 -57 -144t-143 -58t-143.5 58t-57.5 144q0 84 57.5 141.5t143.5 57.5t143 -57.5t57 -141.5zM954 0h-49q-59 0 -84.5 26.5t-25.5 84.5v39q-59 -80 -163 -126.5t-212 -46.5q-135 0 -226.5 75t-91.5 220q0 170 125 261.5t305 91.5q139 0 263 -50v134 q0 121 -82 192.5t-197 71.5q-82 0 -159.5 -43t-127.5 -125l-67 49q47 90 151.5 144.5t218.5 54.5q147 0 249 -89.5t102 -267.5v-585q0 -35 41 -35h30v-76zM629 1380q0 55 -38 93t-95.5 38t-94 -37.5t-36.5 -93.5q0 -57 36.5 -96t94 -39t95.5 39t38 96zM795 258v223 q-98 68 -252 68q-147 0 -246.5 -74t-99.5 -194q0 -109 65.5 -166.5t167.5 -57.5q98 0 198.5 53.5t166.5 147.5z" />
<glyph unicode="&#xe6;" horiz-adv-x="1728" d="M1626 512v-18h-743q4 -197 96 -319t233 -122q178 0 277 162l76 -49q-121 -193 -353 -193q-242 0 -356 238q-82 -113 -201.5 -173.5t-240.5 -60.5q-135 0 -223.5 76t-88.5 219q0 172 125 262.5t305 90.5q139 0 263 -50v134q0 121 -82 192.5t-197 71.5q-82 0 -159.5 -43 t-127.5 -125l-67 49q47 90 150.5 144.5t219.5 54.5q113 0 203 -55.5t127 -163.5q106 217 344 217q188 0 304 -148.5t116 -390.5zM1528 567q-12 184 -99.5 294t-222.5 110t-222 -109.5t-99 -294.5h643zM825 293q-27 90 -28 188q-100 68 -254 68q-147 0 -246.5 -74t-99.5 -194 q0 -106 65.5 -165t165.5 -59q102 0 210.5 60.5t186.5 175.5z" />
<glyph unicode="&#xe7;" horiz-adv-x="966" d="M885 860l-76 -51q-96 162 -270 162q-152 0 -246 -127t-94 -332t94 -332t246 -127q172 0 270 162l76 -49q-115 -186 -334 -193l-62 -127q49 20 109 21q66 0 106.5 -38t40.5 -95q0 -68 -68.5 -111t-172.5 -43q-74 0 -160 35l18 51q68 -31 140 -31q70 0 122 30t52 67 t-24.5 59.5t-69.5 22.5q-84 0 -119 -25l-45 14l80 172q-178 16 -287 163t-109 374q0 242 121 390.5t316 148.5q227 -1 346 -191z" />
<glyph unicode="&#xe8;" horiz-adv-x="1034" d="M631 1182l-86 -2l-328 309h156zM942 512q0 -4 -1 -10t-1 -8h-741q4 -197 96 -319t233 -122q178 0 275 162l78 -49q-57 -90 -149.5 -141.5t-203.5 -51.5q-188 0 -307 149.5t-119 389.5q0 242 116 390.5t304.5 148.5t304 -148.5t115.5 -390.5zM844 567q-12 182 -100.5 293 t-221.5 111q-135 0 -222 -109.5t-99 -294.5h643z" />
<glyph unicode="&#xe9;" horiz-adv-x="1034" d="M858 1489l-330 -309h-79l251 309h158zM942 512q0 -4 -1 -10t-1 -8h-741q4 -197 96 -319t233 -122q178 0 275 162l78 -49q-57 -90 -149.5 -141.5t-203.5 -51.5q-188 0 -307 149.5t-119 389.5q0 242 116 390.5t304.5 148.5t304 -148.5t115.5 -390.5zM844 567 q-12 182 -100.5 293t-221.5 111q-135 0 -222 -109.5t-99 -294.5h643z" />
<glyph unicode="&#xea;" horiz-adv-x="1034" d="M827 1171l-79 -2l-244 236l-236 -236h-75l258 308h112zM942 512q0 -4 -1 -10t-1 -8h-741q4 -197 96 -319t233 -122q178 0 275 162l78 -49q-57 -90 -149.5 -141.5t-203.5 -51.5q-188 0 -307 149.5t-119 389.5q0 242 116 390.5t304.5 148.5t304 -148.5t115.5 -390.5z M844 567q-12 182 -100.5 293t-221.5 111q-135 0 -222 -109.5t-99 -294.5h643z" />
<glyph unicode="&#xeb;" horiz-adv-x="1034" d="M750 1325q0 -27 -20.5 -46t-47.5 -19t-46.5 19t-19.5 46t19.5 47.5t46.5 20.5t47.5 -20.5t20.5 -47.5zM412 1325q0 -27 -20.5 -46t-47.5 -19t-46 19t-19 46q0 29 19 48.5t46 19.5q29 0 48.5 -20.5t19.5 -47.5zM942 512q0 -4 -1 -10t-1 -8h-741q4 -197 96 -319t233 -122 q178 0 275 162l78 -49q-57 -90 -149.5 -141.5t-203.5 -51.5q-188 0 -307 149.5t-119 389.5q0 242 116 390.5t304.5 148.5t304 -148.5t115.5 -390.5zM844 567q-12 182 -100.5 293t-221.5 111q-135 0 -222 -109.5t-99 -294.5h643z" />
<glyph unicode="&#xec;" horiz-adv-x="432" d="M289 1182l-84 -2l-330 309h158zM283 0h-88v1026h88v-1026z" />
<glyph unicode="&#xed;" horiz-adv-x="370" d="M553 1489l-328 -309h-82l254 309h156zM242 0h-88v1026h88v-1026z" />
<glyph unicode="&#xee;" horiz-adv-x="428" d="M530 1171l-77 -2l-246 236l-236 -236h-73l256 308h112zM256 0h-88v1026h88v-1026z" />
<glyph unicode="&#xef;" horiz-adv-x="382" d="M426 1325q0 -27 -19.5 -46t-46 -19t-47 19t-20.5 46t19.5 47.5t47.5 20.5q27 0 46.5 -19.5t19.5 -48.5zM88 1325q0 -27 -19.5 -46t-46 -19t-47 19t-20.5 46t20.5 47.5t47 20.5t46 -19.5t19.5 -48.5zM233 0h-88v1026h88v-1026z" />
<glyph unicode="&#xf0;" horiz-adv-x="1146" d="M1028 549q0 -98 -23.5 -192.5t-73.5 -182.5t-143.5 -141t-218.5 -53q-205 0 -328.5 137t-123.5 356q0 233 124 370.5t310 137.5q258 0 389 -225q-39 176 -91 278.5t-147 206.5l-208 -117l-45 58l200 108q-90 72 -190 119l33 59q113 -47 225 -139l135 78l47 -57l-133 -72 q262 -270 262 -729zM928 477q0 53 -9.5 107.5t-35 113t-64.5 102.5t-104.5 72.5t-149.5 28.5q-123 0 -203.5 -65.5t-111.5 -156.5t-31 -204q0 -205 97.5 -309.5t252.5 -104.5q168 0 262.5 111.5t96.5 304.5z" />
<glyph unicode="&#xf1;" horiz-adv-x="1028" d="M827 1407q-27 -182 -194 -182q-66 0 -150 57t-129 57q-90 0 -114 -114l-76 8q8 86 59 137t135 51q72 0 156 -58t119 -58q100 0 121 106zM885 623v-623h-90v645q0 156 -69 240t-194 84q-121 0 -210 -85t-89 -255v-629h-90v1026h90v-149q94 170 310 170q170 0 256 -117 t86 -307z" />
<glyph unicode="&#xf2;" horiz-adv-x="1075" d="M614 1182l-86 -2l-327 309h155zM973 514q0 -246 -117 -393.5t-319 -147.5q-201 0 -318 147.5t-117 393.5q0 244 117 391.5t318 147.5q203 0 319.5 -147.5t116.5 -391.5zM877 514q0 207 -90.5 332t-250 125t-248.5 -125t-89 -332q0 -209 89 -334t248.5 -125t250 125 t90.5 334z" />
<glyph unicode="&#xf3;" horiz-adv-x="1075" d="M889 1489l-330 -309h-80l252 309h158zM973 514q0 -246 -117 -393.5t-319 -147.5q-201 0 -318 147.5t-117 393.5q0 244 117 391.5t318 147.5q203 0 319.5 -147.5t116.5 -391.5zM877 514q0 207 -90.5 332t-250 125t-248.5 -125t-89 -332q0 -209 89 -334t248.5 -125t250 125 t90.5 334z" />
<glyph unicode="&#xf4;" horiz-adv-x="1075" d="M858 1171l-80 -2l-243 236l-236 -236h-76l258 308h113zM973 514q0 -246 -117 -393.5t-319 -147.5q-201 0 -318 147.5t-117 393.5q0 244 117 391.5t318 147.5q203 0 319.5 -147.5t116.5 -391.5zM877 514q0 207 -90.5 332t-250 125t-248.5 -125t-89 -332q0 -209 89 -334 t248.5 -125t250 125t90.5 334z" />
<glyph unicode="&#xf5;" horiz-adv-x="1075" d="M870 1407q-27 -182 -196 -182q-63 0 -147.5 57t-129.5 57q-90 0 -114 -114l-78 8q8 86 60 137t136 51q70 0 156 -58t119 -58q100 0 121 106zM973 514q0 -246 -117 -393.5t-319 -147.5q-201 0 -318 147.5t-117 393.5q0 244 117 391.5t318 147.5q203 0 319.5 -147.5 t116.5 -391.5zM877 514q0 207 -90.5 332t-250 125t-248.5 -125t-89 -332q0 -209 89 -334t248.5 -125t250 125t90.5 334z" />
<glyph unicode="&#xf6;" horiz-adv-x="1075" d="M774 1325q0 -27 -20.5 -46t-47 -19t-46 19t-19.5 46q0 29 19.5 48.5t46 19.5t47 -20.5t20.5 -47.5zM436 1325q0 -27 -20.5 -46t-47 -19t-46 19t-19.5 46q0 29 19.5 48.5t46.5 19.5q29 0 48 -20.5t19 -47.5zM973 514q0 -246 -117 -393.5t-319 -147.5q-201 0 -318 147.5 t-117 393.5q0 244 117 391.5t318 147.5q203 0 319.5 -147.5t116.5 -391.5zM877 514q0 207 -90.5 332t-250 125t-248.5 -125t-89 -332q0 -209 89 -334t248.5 -125t250 125t90.5 334z" />
<glyph unicode="&#xf7;" horiz-adv-x="1222" d="M684 983q0 -31 -21.5 -52.5t-52.5 -21.5q-29 0 -50 21.5t-21 52.5q0 29 21.5 50.5t49.5 21.5q31 0 52.5 -21.5t21.5 -50.5zM1141 604h-1059v82h1059v-82zM684 305q0 -29 -21.5 -50.5t-52.5 -21.5q-29 0 -50 21.5t-21 50.5q0 31 21.5 52.5t49.5 21.5q31 0 52.5 -21.5 t21.5 -52.5z" />
<glyph unicode="&#xf8;" horiz-adv-x="1064" d="M1018 1085l-131 -182q129 -152 129 -393.5t-125 -391t-330 -149.5q-160 0 -274 97l-117 -162l-68 39l127 178q-125 152 -125 389q0 242 126 390.5t331 148.5q156 0 270 -93l121 170zM778 885q-88 82 -217 82q-162 0 -261 -126t-99 -331q0 -188 84 -311zM922 510 q0 190 -91 315l-493 -688q92 -86 223 -86q162 0 261.5 127t99.5 332z" />
<glyph unicode="&#xf9;" horiz-adv-x="1007" d="M592 1182l-84 -2l-330 309h158zM864 0h-90v150q-94 -170 -309 -170q-170 0 -256 116.5t-86 306.5v623h90v-645q0 -156 68.5 -240t193.5 -84q121 0 210 85t89 255v629h90v-1026z" />
<glyph unicode="&#xfa;" horiz-adv-x="1007" d="M825 1489l-327 -309h-82l254 309h155zM864 0h-90v150q-94 -170 -309 -170q-170 0 -256 116.5t-86 306.5v623h90v-645q0 -156 68.5 -240t193.5 -84q121 0 210 85t89 255v629h90v-1026z" />
<glyph unicode="&#xfb;" horiz-adv-x="1007" d="M811 1171l-80 -2l-244 236l-235 -236h-76l258 308h113zM864 0h-90v150q-94 -170 -309 -170q-170 0 -256 116.5t-86 306.5v623h90v-645q0 -156 68.5 -240t193.5 -84q121 0 210 85t89 255v629h90v-1026z" />
<glyph unicode="&#xfc;" horiz-adv-x="1007" d="M729 1325q0 -27 -19.5 -46t-46 -19t-47 19t-20.5 46t19.5 47.5t48.5 20.5q27 0 46 -20.5t19 -47.5zM391 1325q0 -27 -20.5 -46t-47 -19t-46 19t-19.5 46t19.5 47.5t46.5 20.5q29 0 48 -20.5t19 -47.5zM864 0h-90v150q-94 -170 -309 -170q-170 0 -256 116.5t-86 306.5v623 h90v-645q0 -156 68.5 -240t193.5 -84q121 0 210 85t89 255v629h90v-1026z" />
<glyph unicode="&#xfd;" horiz-adv-x="952" d="M817 1489l-330 -309h-79l254 309h155zM891 1026l-500 -1319q-25 -63 -75 -98t-109 -35q-27 0 -64 16v68q33 -16 64 -16q84 0 119 94l100 260l-365 1030h91l315 -932l332 932h92z" />
<glyph unicode="&#xfe;" horiz-adv-x="1046" d="M934 508q0 -248 -103.5 -389.5t-279.5 -141.5q-207 0 -320 218v-605h-88v1850h88v-574q66 98 137.5 140.5t170.5 42.5q182 0 288.5 -151.5t106.5 -389.5zM840 504q0 82 -14.5 158.5t-47.5 149.5t-96.5 117t-149.5 44q-92 0 -177 -78t-124 -205v-325q39 -129 119 -219.5 t197 -90.5q137 0 215 121t78 328z" />
<glyph unicode="&#xff;" horiz-adv-x="952" d="M711 1325q0 -27 -19.5 -46t-46.5 -19t-46 19t-19 46q0 29 19 48.5t46 19.5t46.5 -19.5t19.5 -48.5zM373 1325q0 -27 -19.5 -46t-46 -19t-47 19t-20.5 46t19.5 47.5t47.5 20.5q27 0 46.5 -19.5t19.5 -48.5zM891 1026l-500 -1319q-25 -63 -75 -98t-109 -35q-27 0 -64 16v68 q33 -16 64 -16q84 0 119 94l100 260l-365 1030h91l315 -932l332 932h92z" />
<glyph unicode="&#x152;" horiz-adv-x="2011" d="M1929 2h-903q-137 -33 -291 -33q-285 0 -459 224.5t-174 525.5q0 319 179.5 534t455.5 215q127 0 291 -30h860v-78h-758v-567h572v-78h-572v-635h799v-78zM1044 90v1260q-147 47 -311 47q-238 0 -387 -204t-149 -472t149.5 -471t388.5 -203q159 0 309 43z" />
<glyph unicode="&#x153;" horiz-adv-x="1857" d="M1755 510v-21h-741q-2 -8 -2 -22q0 -184 95 -300t234 -116q180 0 277 162l76 -51q-119 -190 -353 -191q-129 0 -227 73t-151 202q-55 -129 -161 -202t-245 -73q-203 0 -329 148.5t-126 390.5t126 390.5t329 148.5q139 0 244.5 -72t161.5 -201q51 129 148 201t224 72 q188 0 304 -148.5t116 -390.5zM1657 565q-12 182 -99.5 293t-222.5 111q-133 0 -221 -110.5t-100 -293.5h643zM918 510q0 205 -99.5 332t-261.5 127t-260 -126t-98 -333q0 -205 98 -332t260 -127t261.5 127t99.5 332z" />
<glyph unicode="&#x178;" horiz-adv-x="1140" d="M807 1648.5q0 -26.5 -20.5 -46t-47 -19.5t-46 19.5t-19.5 46.5q0 29 19.5 48t46 19t47 -20.5t20.5 -47zM469 1648.5q0 -26.5 -20.5 -46t-47 -19.5t-46 19.5t-19.5 46.5q0 29 19.5 48t45.5 19q29 0 48.5 -20.5t19.5 -47zM1110 1440l-496 -860v-580h-88v580l-495 860h100 l438 -781l441 781h100z" />
<glyph unicode="&#x2c6;" horiz-adv-x="921" d="M778 1171l-80 -2l-243 236l-236 -236h-76l256 308h113z" />
<glyph unicode="&#x2dc;" horiz-adv-x="952" d="M809 1407q-29 -182 -197 -182q-66 0 -148.5 57t-127.5 57q-90 0 -117 -114l-76 8q8 86 59.5 137t135.5 51q72 0 156 -58t118 -58q98 0 123 106z" />
<glyph unicode="&#x2000;" horiz-adv-x="952" />
<glyph unicode="&#x2001;" horiz-adv-x="1904" />
<glyph unicode="&#x2002;" horiz-adv-x="952" />
<glyph unicode="&#x2003;" horiz-adv-x="1904" />
<glyph unicode="&#x2004;" horiz-adv-x="634" />
<glyph unicode="&#x2005;" horiz-adv-x="475" />
<glyph unicode="&#x2006;" horiz-adv-x="317" />
<glyph unicode="&#x2007;" horiz-adv-x="317" />
<glyph unicode="&#x2008;" horiz-adv-x="237" />
<glyph unicode="&#x2009;" horiz-adv-x="380" />
<glyph unicode="&#x200a;" horiz-adv-x="104" />
<glyph unicode="&#x2010;" horiz-adv-x="655" d="M553 680l-451 -2v80h451v-78z" />
<glyph unicode="&#x2011;" horiz-adv-x="655" d="M553 680l-451 -2v80h451v-78z" />
<glyph unicode="&#x2012;" horiz-adv-x="655" d="M553 680l-451 -2v80h451v-78z" />
<glyph unicode="&#x2013;" horiz-adv-x="1013" d="M932 680l-850 -2v80h850v-78z" />
<glyph unicode="&#x2014;" horiz-adv-x="1013" d="M932 680l-850 -2v80h850v-78z" />
<glyph unicode="&#x2018;" horiz-adv-x="428" d="M356 1446l-153 -490h-121l213 508z" />
<glyph unicode="&#x2019;" horiz-adv-x="428" d="M346 1440l-213 -506l-61 16l153 490h121z" />
<glyph unicode="&#x201a;" horiz-adv-x="438" d="M356 227l-213 -506l-61 19l154 487h120z" />
<glyph unicode="&#x201c;" horiz-adv-x="755" d="M684 1446l-154 -490h-118l213 508zM356 1446l-153 -490h-121l213 508z" />
<glyph unicode="&#x201d;" horiz-adv-x="755" d="M674 1440l-213 -506l-60 16l154 490h119zM346 1440l-213 -506l-61 16l153 490h121z" />
<glyph unicode="&#x201e;" horiz-adv-x="765" d="M684 227l-213 -506l-59 19l153 487h119zM356 227l-213 -506l-61 19l154 487h120z" />
<glyph unicode="&#x2022;" horiz-adv-x="729" d="M596 737.5q0 -96.5 -67.5 -165t-163.5 -68.5q-94 0 -163 67.5t-69 163.5t67.5 166t164.5 70q94 0 162.5 -68.5t68.5 -165z" />
<glyph unicode="&#x2026;" horiz-adv-x="1331" d="M1249 82q0 -43 -29.5 -72.5t-70.5 -29.5q-43 0 -72.5 29.5t-29.5 70.5q0 43 29.5 72.5t70.5 29.5q43 0 72.5 -29.5t29.5 -70.5zM764 82q0 -43 -29.5 -72.5t-70.5 -29.5q-43 0 -73 29.5t-30 70.5q0 43 30 72.5t71 29.5q43 0 72.5 -29.5t29.5 -70.5zM285 82 q0 -43 -30 -72.5t-71 -29.5q-43 0 -72.5 29.5t-29.5 70.5q0 43 29.5 72.5t70.5 29.5q43 0 73 -29.5t30 -70.5z" />
<glyph unicode="&#x202f;" horiz-adv-x="380" />
<glyph unicode="&#x2039;" horiz-adv-x="579" d="M498 156h-97l-319 430l324 450l81 -18l-313 -432z" />
<glyph unicode="&#x203a;" horiz-adv-x="577" d="M496 586l-318 -430h-96l321 430l-313 432l82 18z" />
<glyph unicode="&#x205f;" horiz-adv-x="475" />
<glyph unicode="&#x20ac;" horiz-adv-x="1353" d="M1292 1090l-86 -31q-59 154 -169.5 243t-256.5 89q-178 0 -301 -132.5t-164 -345.5h553l-16 -73h-549q-6 -57 -6 -121q0 -39 4 -105h567l-16 -75h-541q39 -219 164 -354.5t305 -135.5q252 0 385 246l86 -31q-76 -137 -196.5 -215t-274.5 -78q-221 0 -370.5 158 t-192.5 410h-217l16 75h193q-6 53 -6 105q0 63 6 121h-209l16 73h205q45 248 192.5 401.5t366.5 153.5q176 0 308 -101t204 -277z" />
<glyph unicode="&#x2122;" horiz-adv-x="1525" d="M1423 692h-77v645l-226 -647h-47l-233 656l3 -99q1 -33 0 -66.5t-2 -163.5t-1 -325h-72v748h106l222 -625l223 625h104v-748zM645 1372h-231v-680h-78v680h-234v68h543v-68z" />
<glyph unicode="&#xe000;" horiz-adv-x="1025" d="M0 1025h1025v-1025h-1025v1025z" />
<glyph unicode="&#xfb01;" horiz-adv-x="978" d="M836 0h-88v950h-420v-950h-90v950h-166v76h166v180q0 117 61 187.5t154 70.5q59 0 116 -30v-93q-47 45 -104 45t-97 -43t-40 -116v-201h508v-1026z" />
<glyph unicode="&#xfb02;" horiz-adv-x="1044" d="M901 0h-88v1440h88v-1440zM569 1348q-47 41 -106 41q-55 0 -95 -43t-40 -109v-211h237v-72h-237v-954h-88v954h-168v72h168v188q0 111 59 180.5t158 69.5q68 0 112 -28v-88z" />
<glyph unicode="&#xfb03;" horiz-adv-x="1714" d="M1571 1393q0 -31 -21.5 -52.5t-50.5 -21.5q-31 0 -52.5 21.5t-21.5 52.5q0 29 21.5 50t52.5 21q29 0 50.5 -21t21.5 -50zM1542 0h-88v1026h88v-1026zM1210 1341q-47 45 -104 45t-97 -43t-40 -116v-201h237v-76h-237v-950h-90v950h-166v76h166v180q0 117 61 187.5 t154 70.5q59 0 116 -30v-93zM569 1341q-47 45 -104 45t-97 -43t-40 -116v-201h237v-76h-237v-950h-90v950h-166v76h166v180q0 117 61 187.5t154 70.5q59 0 116 -30v-93z" />
<glyph unicode="&#xfb04;" horiz-adv-x="1656" d="M1513 0h-88v1440h88v-1440zM1210 1341q-47 45 -104 45t-97 -43t-40 -116v-201h237v-76h-237v-950h-90v950h-166v76h166v180q0 117 61 187.5t154 70.5q59 0 116 -30v-93zM569 1341q-47 45 -104 45t-97 -43t-40 -116v-201h237v-76h-237v-950h-90v950h-166v76h166v180 q0 117 61 187.5t154 70.5q59 0 116 -30v-93z" />
</font>
</defs>
</svg>
